HIERARCHY
ROOT Hips
{
 OFFSET 0.000000 0.000000 0.000000
 CHANNELS 6 Xposition Yposition Zposition Yrotation Xrotation Zrotation
 JOINT Chest
 {
  OFFSET 0.000000 9.581000 -0.001100
  CHANNELS 3 Yrotation Xrotation Zrotation
  JOINT Chest2
  {
   OFFSET 0.000000 9.561100 0.002200
   CHANNELS 3 Yrotation Xrotation Zrotation
   JOINT Chest3
   {
    OFFSET 0.000000 9.521100 0.000000
    CHANNELS 3 Yrotation Xrotation Zrotation
    JOINT Chest4
    {
     OFFSET 0.000000 9.511400 0.000000
     CHANNELS 3 Yrotation Xrotation Zrotation
     JOINT Neck
     {
      OFFSET 0.000000 14.375100 0.000000
      CHANNELS 3 Yrotation Xrotation Zrotation
      JOINT Head
      {
       OFFSET 0.000000 8.901200 0.004600
       CHANNELS 3 Yrotation Xrotation Zrotation
       End Site
       {
        OFFSET 0.000000 16.962200 0.002400
       }
      }
     }
     JOINT RightCollar
     {
      OFFSET -2.920100 9.518800 0.000000
      CHANNELS 3 Yrotation Xrotation Zrotation
      JOINT RightShoulder
      {
       OFFSET -13.664500 0.000000 0.000000
       CHANNELS 3 Yrotation Xrotation Zrotation
       JOINT RightElbow
       {
        OFFSET 0.000000 -29.999200 0.000000
        CHANNELS 3 Yrotation Xrotation Zrotation
        JOINT RightWrist
        {
         OFFSET 0.000000 -24.253600 0.000000
         CHANNELS 3 Yrotation Xrotation Zrotation
         End Site
         {
          OFFSET 0.000000 -17.918900 0.000000
         }
        }
       }
      }
     }
     JOINT LeftCollar
     {
      OFFSET 2.920100 9.518800 0.000000
      CHANNELS 3 Yrotation Xrotation Zrotation
      JOINT LeftShoulder
      {
       OFFSET 13.664500 0.000000 0.000000
       CHANNELS 3 Yrotation Xrotation Zrotation
       JOINT LeftElbow
       {
        OFFSET 0.000000 -29.999200 0.000000
        CHANNELS 3 Yrotation Xrotation Zrotation
        JOINT LeftWrist
        {
         OFFSET 0.000000 -24.253600 0.000000
         CHANNELS 3 Yrotation Xrotation Zrotation
         End Site
         {
          OFFSET 0.000000 -17.918900 0.000000
         }
        }
       }
      }
     }
    }
   }
  }
 }
 JOINT RightHip
 {
  OFFSET -7.797300 0.005300 0.000500
  CHANNELS 3 Yrotation Xrotation Zrotation
  JOINT RightKnee
  {
   OFFSET 0.000000 -40.663400 -0.000500
   CHANNELS 3 Yrotation Xrotation Zrotation
   JOINT RightAnkle
   {
    OFFSET 0.000000 -39.523700 -0.000900
    CHANNELS 3 Yrotation Xrotation Zrotation
    JOINT RightToe
    {
     OFFSET 0.000000 -6.418000 14.485300
     CHANNELS 3 Yrotation Xrotation Zrotation
     End Site
     {
      OFFSET 0.000000 -1.465200 6.326400
     }
    }
   }
  }
 }
 JOINT LeftHip
 {
  OFFSET 7.797300 0.005300 0.000500
  CHANNELS 3 Yrotation Xrotation Zrotation
  JOINT LeftKnee
  {
   OFFSET 0.000000 -40.663400 -0.000500
   CHANNELS 3 Yrotation Xrotation Zrotation
   JOINT LeftAnkle
   {
    OFFSET 0.000000 -39.523700 -0.000900
    CHANNELS 3 Yrotation Xrotation Zrotation
    JOINT LeftToe
    {
     OFFSET 0.000000 -6.418000 14.485300
     CHANNELS 3 Yrotation Xrotation Zrotation
     End Site
     {
      OFFSET 0.000000 -1.465200 6.326400
     }
    }
   }
  }
 }
}
MOTION
Frames: 12
Frame Time: 0.008333
0.000000 86.422400 0.000000 0.000000 -5.767877 0.000000 0.000000 11.653817 0.000000 0.000000 -5.885947 0.000000 0.000000 -0.000000 0.000000 0.000000 -0.000000 0.000000 0.000000 12.528835 0.000000 0.000000 0.711642 0.000000 0.000000 -0.000000 0.000000 0.000000 0.000000 -90.000000 0.000000 -2.309062 0.000000 0.000000 2.309062 0.000000 0.000000 -0.000000 0.000000 0.000000 -0.000000 90.000000 0.000000 -2.309062 0.000000 0.000000 2.309062 0.000000 0.000000 8.520406 0.000000 0.000000 1.905762 0.000000 -0.000000 -4.658285 0.000000 0.000000 -0.000000 0.000000 0.000000 8.520406 0.000000 0.000000 1.905762 0.000000 -0.000000 -4.658285 0.000000 0.000000 -0.000000 0.000000
-14.730560 126.889955 13.740332 166.861297 -48.960762 -5.951933 3.694870 26.098846 4.900276 0.454812 4.432885 0.692283 0.752994 7.026855 1.119518 2.811087 21.392919 3.829864 -1.505064 18.819442 -3.944496 -0.697683 -5.812493 -3.916797 1.627864 1.220926 3.006794 8.148025 -13.711012 -18.480802 -96.700153 -66.024625 146.779216 7.479141 1.164176 -1.441405 -9.997948 -1.137101 0.160835 -11.961177 -16.323380 15.304736 54.889977 -57.258412 -104.740801 -1.565971 -22.316097 11.523396 -12.271556 -9.134268 3.506623 -176.805014 82.985167 -165.602626 10.458781 -7.592317 -1.874987 0.000385 -0.000529 0.000170 -4.677163 -25.019505 -1.232996 -1.484094 74.922126 -2.489707 1.699266 -2.785989 -2.811928 0.000314 0.001813 0.000139
-14.730358 126.890110 13.740514 166.863888 -48.962304 -5.957906 3.687197 26.107379 4.895925 0.454057 4.435442 0.691647 0.740178 7.044917 1.112934 2.818582 21.387256 3.831457 -1.482225 18.807614 -3.914118 -0.674390 -5.819881 -3.859610 1.634705 1.215087 3.007097 8.100427 -13.735787 -18.447644 -96.606274 -66.014617 146.716071 7.443502 1.245143 -1.424866 -9.991620 -1.148548 0.155583 -11.949721 -16.325311 15.307667 54.887546 -57.233824 -104.737527 -1.541625 -22.290751 11.520426 -12.276300 -9.131911 3.510401 -176.833901 82.985441 -165.631284 10.457016 -7.587213 -1.886111 0.000988 -0.000692 0.000438 -4.668806 -25.020439 -1.235292 -1.476091 74.925255 -2.468479 1.693367 -2.783869 -2.822311 0.000460 0.000881 0.000204
-14.730592 126.889947 13.740863 166.858621 -48.961997 -5.955988 3.684750 26.111606 4.889027 0.450527 4.440294 0.689403 0.741728 7.046114 1.113092 2.811922 21.395089 3.826727 -1.459214 18.793628 -3.894353 -0.648192 -5.831901 -3.795844 1.624229 1.224959 3.014997 8.071708 -13.769428 -18.414840 -96.557261 -66.030252 146.719370 7.382023 1.320503 -1.426456 -9.983770 -1.156925 0.155472 -11.939719 -16.325448 15.307346 54.887478 -57.206730 -104.729836 -1.522471 -22.267135 11.517195 -12.276719 -9.132643 3.513580 -176.819763 82.983123 -165.618229 10.455823 -7.587698 -1.891279 0.001176 -0.000704 0.000521 -4.660911 -25.022331 -1.235593 -1.455203 74.927488 -2.442481 1.682826 -2.783881 -2.830288 0.000672 0.000743 0.000298
-14.730113 126.890856 13.740532 166.864318 -48.968768 -5.965738 3.675845 26.121860 4.884306 0.449527 4.442452 0.688599 0.740165 7.049388 1.111785 2.811622 21.402032 3.823954 -1.433104 18.781756 -3.848362 -0.620701 -5.848713 -3.752051 1.610961 1.230671 3.024389 8.010161 -13.786139 -18.336547 -96.493184 -66.049620 146.706401 7.350721 1.408866 -1.382723 -10.001107 -1.141622 0.139454 -11.913594 -16.323895 15.320016 54.906787 -57.214251 -104.742630 -1.492747 -22.249764 11.526298 -12.281131 -9.122472 3.517659 -176.812938 82.983616 -165.610970 10.457250 -7.588616 -1.895069 0.001395 -0.001628 0.000618 -4.659735 -25.014783 -1.232681 -1.439211 74.931112 -2.420392 1.673645 -2.789651 -2.846427 0.000618 0.000489 0.000274
-14.730247 126.891071 13.740578 166.863517 -48.970434 -5.967471 3.668476 26.125726 4.876864 0.445397 4.444278 0.686554 0.738223 7.051737 1.109993 2.781615 21.419416 3.803070 -1.373470 18.758813 -3.794513 -0.594855 -5.863866 -3.724392 1.632867 1.235271 3.035873 8.023698 -13.808518 -18.328678 -96.284186 -65.974466 146.448379 7.390997 1.495229 -1.301660 -9.964961 -1.149690 0.147744 -11.892159 -16.297875 15.301833 54.927843 -57.231982 -104.767783 -1.478837 -22.237021 11.538717 -12.281924 -9.119441 3.520400 -176.813414 82.981781 -165.612872 10.457607 -7.593867 -1.895225 0.001451 -0.002061 0.000643 -4.645366 -25.010144 -1.236422 -1.440659 74.933704 -2.407688 1.668650 -2.804200 -2.872207 0.001052 0.000565 0.000466
-14.730315 126.891348 13.740543 166.860152 -48.972257 -5.967426 3.668510 26.127977 4.876112 0.438486 4.445822 0.683659 0.733387 7.053910 1.107398 2.773727 21.422200 3.795572 -1.338045 18.746436 -3.754933 -0.584664 -5.866936 -3.723413 1.631311 1.255250 3.041580 7.965838 -13.807501 -18.237309 -96.206462 -65.999164 146.434842 7.374497 1.575656 -1.268310 -9.965246 -1.131496 0.140780 -11.856116 -16.274906 15.292697 54.949687 -57.184331 -104.764193 -1.541873 -22.219041 11.503731 -12.281998 -9.116221 3.522737 -176.820764 82.979458 -165.623229 10.459536 -7.599590 -1.892761 0.001745 -0.001995 0.000773 -4.621309 -25.005991 -1.246175 -1.441415 74.938122 -2.388215 1.664642 -2.814118 -2.875892 0.001610 0.002102 0.000713
-14.730914 126.891935 13.739952 166.859228 -48.976190 -5.965310 3.656377 26.134117 4.865460 0.439082 4.447740 0.682852 0.731514 7.053890 1.105363 2.767130 21.423238 3.788506 -1.301410 18.734018 -3.714410 -0.545876 -5.888415 -3.670838 1.627124 1.276657 3.050282 7.938538 -13.797176 -18.173976 -96.211155 -66.029500 146.483946 7.313628 1.657308 -1.248963 -9.958239 -1.107851 0.135758 -11.813040 -16.175246 15.245781 55.047778 -57.248639 -104.862638 -1.537768 -22.194951 11.506171 -12.283518 -9.111487 3.516611 -176.859040 82.977314 -165.663859 10.460525 -7.598373 -1.887923 0.001588 -0.001122 0.000704 -4.610171 -24.998126 -1.251847 -1.441951 74.942230 -2.383560 1.656771 -2.834038 -2.888845 0.001286 0.001713 0.000570
-14.731609 126.891314 13.740370 166.856960 -48.970024 -5.963170 3.647437 26.132948 4.858289 0.434472 4.446453 0.677863 0.736325 7.052616 1.106036 2.757288 21.423771 3.779704 -1.261394 18.721286 -3.671937 -0.503021 -5.910994 -3.617060 1.626187 1.304758 3.055526 7.927090 -13.789465 -18.121853 -96.069676 -66.011387 146.366565 7.321744 1.740256 -1.213560 -9.957815 -1.046221 0.123155 -11.779395 -16.158557 15.246949 55.089756 -57.255698 -104.899087 -1.479657 -22.145476 11.514797 -12.283783 -9.118922 3.515155 -176.879764 82.973350 -165.685914 10.462235 -7.597858 -1.885681 0.001920 -0.000602 0.000851 -4.587583 -24.993745 -1.261115 -1.454608 74.940802 -2.377085 1.648297 -2.878475 -2.924839 -0.000061 0.000246 -0.000027
-14.732435 126.891196 13.740233 166.849950 -48.967771 -5.956325 3.640371 26.133918 4.846415 0.433411 4.445279 0.674632 0.745285 7.051540 1.111537 2.739624 21.426239 3.767260 -1.217333 18.707238 -3.628530 -0.494521 -5.912628 -3.612996 1.627088 1.338551 3.065509 7.926355 -13.782091 -18.076436 -95.929632 -65.991471 146.244619 7.337025 1.826586 -1.176508 -9.939738 -1.010408 0.120968 -11.751560 -16.110766 15.232135 55.130760 -57.263928 -104.938190 -1.446503 -22.109677 11.506101 -12.280707 -9.121699 3.507928 -176.912996 82.970213 -165.717734 10.466258 -7.599892 -1.888801 0.002331 -0.000193 0.001033 -4.541144 -24.987689 -1.286558 -1.465369 74.940154 -2.349114 1.646370 -2.903784 -2.940283 -0.000464 0.001463 -0.000206
-14.732484 126.891586 13.739855 166.846945 -48.968838 -5.957247 3.632213 26.135003 4.837595 0.436688 4.447871 0.674416 0.739039 7.049335 1.109619 2.741994 21.430010 3.763783 -1.174470 18.692917 -3.586835 -0.442328 -5.940173 -3.559172 1.626271 1.365984 3.073228 7.926451 -13.764327 -18.029011 -95.850241 -65.986283 146.180153 7.331212 1.915359 -1.139678 -9.922325 -0.974682 0.118017 -11.723794 -16.056014 15.216047 55.168441 -57.274172 -104.976200 -1.467124 -22.105009 11.479275 -12.286250 -9.121770 3.501362 -176.983443 82.966226 -165.793166 10.470822 -7.595016 -1.883763 0.000771 -0.001692 0.000342 -4.534813 -24.985362 -1.286769 -1.435774 74.950037 -2.320638 1.637396 -2.920600 -2.940530 -0.000322 0.001666 -0.000143
-14.731545 126.891878 13.739934 166.843969 -48.968181 -5.965093 3.630295 26.138241 4.834958 0.443281 4.444871 0.681683 0.725295 7.058788 1.092710 2.760520 21.420612 3.778091 -1.136096 18.680339 -3.549438 -0.388607 -5.968787 -3.505304 1.590146 1.421340 3.076309 7.957606 -13.765394 -17.984284 -95.783706 -65.984564 146.131556 7.326357 2.006040 -1.105558 -9.915246 -0.957249 0.116168 -11.688527 -15.976815 15.190597 55.200389 -57.284582 -105.011064 -1.435059 -22.082597 11.466077 -12.287128 -9.122485 3.507949 -177.006213 82.963868 -165.818691 10.473855 -7.585415 -1.870729 0.001127 -0.001015 0.000499 -4.511819 -24.978913 -1.291974 -1.393684 74.963126 -2.251418 1.624210 -2.964471 -2.966396 0.000879 0.002189 0.000390
